# xmcd
#
# Track frame offsets:
#	150
#	18949
#	36378
#	52018
#	70580
#	84317
#	104021
#	116642
#	131409
#	149511
#
# Disc length: 2210 seconds
#
# Revision: 1
# Processed by: cddbd v1.5.2PL0 Copyright (c) Steve Scherf et al.
# Submitted via: EasyCDDAExtractor 16.0.6.1
#
DISCID=8b08a00a
DTITLE=Two Tons of Steel - Not That Lucky
DYEAR=2009
DGENRE=Country
TTITLE0=Cryin' Eyes
TTITLE1=Long Road to Heaven
TTITLE2=Hold Over Me
TTITLE3=Alcohol and Pills
TTITLE4=Not That Lucky
TTITLE5=Run to You
TTITLE6=Without Your Love
TTITLE7=Bad Attitude
TTITLE8=Wanna Dance
TTITLE9=Bottom of the Bottle
EXTD=Submitted by Larry@LosSenderosStudio.com\nSmith Entertainment (www.smithm
EXTD=usic.com]\nSED7125\n6-62582-7125-2
EXTT0=
EXTT1=
EXTT2=
EXTT3=
EXTT4=
EXTT5=
EXTT6=
EXTT7=
EXTT8=
EXTT9=
PLAYORDER=
